<?xml version="1.0" standalone="no"?>
<!DOCTYPE svg PUBLIC "-//W3C//DTD SVG 20010904//EN"
 "http://www.w3.org/TR/2001/REC-SVG-20010904/DTD/svg10.dtd">
<svg version="1.0" xmlns="http://www.w3.org/2000/svg"
 width="700.000000pt" height="700.000000pt" viewBox="0 0 700.000000 700.000000"
 preserveAspectRatio="xMidYMid meet">
<metadata>
Created by potrace 1.14, written by Peter Selinger 2001-2017
</metadata>
<g transform="translate(0.000000,700.000000) scale(0.100000,-0.100000)"
fill="#000000" stroke="none">
<path d="M3278 6995 c-1 -1 -42 -5 -89 -9 -47 -4 -95 -8 -105 -10 -10 -2 -46
-7 -79 -11 -32 -4 -68 -9 -80 -11 -11 -2 -45 -8 -75 -14 -83 -15 -89 -16 -180
-40 -47 -12 -95 -24 -107 -26 -39 -7 -261 -84 -367 -126 -124 -49 -349 -158
-434 -210 -34 -21 -67 -38 -72 -38 -6 0 -10 -4 -10 -10 0 -5 -5 -10 -11 -10
-15 0 -206 -131 -323 -223 -484 -375 -868 -887 -1096 -1458 -68 -169 -145
-420 -166 -537 -3 -15 -10 -47 -15 -72 -16 -67 -18 -78 -23 -124 -3 -22 -8
-52 -11 -66 -5 -28 -10 -70 -22 -200 -15 -163 -8 -598 12 -711 2 -13 7 -44 9
-69 17 -153 63 -363 123 -560 69 -228 222 -568 343 -763 30 -48 60 -95 65
-105 24 -43 133 -192 212 -290 144 -178 306 -343 493 -499 102 -84 305 -233
320 -233 5 0 10 -4 10 -10 0 -5 4 -10 10 -10 5 0 40 -19 77 -43 217 -139 574
-295 858 -375 137 -39 329 -79 464 -98 25 -3 57 -8 71 -10 163 -25 682 -25
842 1 13 2 46 7 73 10 74 11 87 13 120 19 17 4 46 9 65 12 51 8 213 48 300 74
627 183 1199 545 1630 1029 36 41 70 79 76 85 29 30 185 242 240 326 261 399
432 827 518 1300 21 120 29 171 42 300 2 19 7 141 10 270 l7 235 -154 1 c-186
1 -436 13 -579 29 -65 7 -102 12 -190 25 -36 5 -78 11 -95 14 -357 51 -694
217 -978 480 -38 35 -304 285 -338 318 -9 9 -66 55 -125 103 -191 155 -420
294 -618 375 -458 187 -1083 145 -1686 -115 -207 -89 -451 -208 -442 -216 4
-3 61 -21 127 -39 382 -104 588 -182 717 -272 14 -10 29 -18 33 -18 15 0 158
-113 214 -169 67 -68 105 -120 145 -198 29 -58 29 -58 -51 -68 -67 -8 -259
-60 -363 -98 -260 -95 -551 -251 -807 -435 -137 -99 -156 -114 -376 -307
l-160 -140 39 -7 c22 -3 71 -9 109 -13 39 -4 79 -9 89 -11 11 -2 56 -8 100
-14 45 -6 99 -13 121 -16 33 -5 108 -19 265 -50 132 -27 465 -128 555 -169 17
-7 50 -21 75 -31 238 -95 515 -295 619 -447 87 -127 142 -306 145 -471 11
-485 -343 -886 -859 -974 -67 -12 -296 -7 -370 7 -230 45 -458 158 -665 331
-532 446 -906 1057 -1054 1720 -57 258 -71 391 -71 675 0 241 8 363 31 495 2
14 8 52 14 85 49 299 175 647 349 969 65 118 275 424 321 466 3 3 23 25 44 50
262 302 593 561 945 739 144 73 334 155 406 175 6 1 48 15 95 29 117 37 299
80 385 92 11 2 34 6 50 9 139 24 227 30 475 30 218 1 338 -4 450 -19 19 -2 55
-7 80 -10 42 -5 122 -19 180 -30 14 -3 41 -8 60 -11 48 -8 303 -72 365 -91
398 -123 755 -289 1060 -492 55 -36 107 -71 115 -78 8 -6 59 -46 114 -88 130
-101 159 -127 301 -269 206 -207 353 -405 482 -651 29 -55 52 -94 53 -87 0 7
-4 20 -10 30 -5 9 -27 58 -49 107 -103 239 -273 518 -449 739 -427 535 -999
936 -1634 1146 -163 54 -425 119 -548 135 -14 2 -38 6 -55 9 -16 3 -55 8 -85
11 -30 4 -73 9 -95 12 -45 5 -541 13 -547 8z m227 -2229 c131 -18 290 -72 425
-144 261 -140 417 -264 824 -657 12 -11 50 -45 86 -75 36 -30 67 -57 70 -60 3
-3 21 -17 40 -31 278 -205 588 -341 900 -395 25 -4 47 -8 50 -9 3 -1 30 -5 60
-10 30 -5 57 -9 60 -10 17 -4 157 -19 169 -18 29 3 -7 -16 -64 -32 -64 -18
-73 -20 -129 -29 -20 -3 -53 -9 -73 -13 -85 -16 -383 -8 -453 12 -8 2 -26 6
-40 9 -54 11 -72 16 -162 46 -98 34 -305 121 -461 194 -270 127 -390 178 -562
241 -220 80 -494 143 -694 161 -41 3 -81 8 -90 9 -9 2 -19 4 -23 4 -5 1 -8 9
-8 18 0 62 -110 289 -182 378 -95 116 -263 261 -382 330 -33 19 -44 30 -35 35
22 11 150 34 271 49 73 8 330 6 403 -3z m55 -1190 c19 -4 67 -11 105 -17 75
-12 238 -50 320 -75 66 -21 215 -73 240 -84 11 -5 67 -29 125 -54 58 -24 146
-63 195 -86 50 -23 117 -55 150 -70 33 -15 85 -39 115 -53 270 -124 507 -198
720 -224 113 -14 378 -8 480 11 14 3 39 7 55 9 52 8 229 55 291 77 32 12 101
42 153 66 51 25 95 43 97 41 5 -5 -32 -231 -51 -308 -9 -35 -18 -72 -20 -81
-40 -174 -137 -433 -234 -627 -253 -506 -639 -935 -1108 -1233 -54 -35 -108
-69 -118 -75 -60 -38 -314 -161 -419 -203 -215 -85 -481 -158 -676 -185 -25
-3 -56 -8 -70 -10 -112 -21 -605 -28 -725 -11 -75 10 -87 12 -155 21 -58 7
-192 34 -197 38 -1 2 21 12 50 22 79 28 203 92 297 153 110 73 288 251 363
363 149 225 226 477 222 725 -6 312 -106 588 -291 798 -88 100 -119 128 -225
209 -230 173 -538 316 -905 422 -86 25 -163 45 -171 45 -30 0 -7 18 101 83
244 145 512 256 718 296 56 11 112 22 123 25 28 6 402 -1 445 -8z"/>
<path d="M6750 4775 c0 -5 5 -17 10 -25 5 -8 10 -10 10 -5 0 6 -5 17 -10 25
-5 8 -10 11 -10 5z"/>
</g>
</svg>
